<mxfile host="Electron" modified="2024-04-03T12:00:56.603Z" agent="Mozilla/5.0 (Windows NT 10.0; Win64; x64) AppleWebKit/537.36 (KHTML, like Gecko) draw.io/22.1.2 Chrome/114.0.5735.289 Electron/25.9.4 Safari/537.36" etag="-jH-KwsCvHBgOc2H2_FX" version="22.1.2" type="device">
  <diagram id="R2lEEEUBdFMjLlhIrx00" name="Page-1">
    <mxGraphModel dx="1234" dy="721" grid="1" gridSize="10" guides="0" tooltips="1" connect="1" arrows="1" fold="1" page="1" pageScale="1" pageWidth="850" pageHeight="1100" math="0" shadow="0" extFonts="Permanent Marker^https://fonts.googleapis.com/css?family=Permanent+Marker">
      <root>
        <mxCell id="0" />
        <mxCell id="1" parent="0" />
        <mxCell id="Hm1y3ViinjfG2HuNgmm4-15" value="&lt;font style=&quot;font-size: 20px;&quot;&gt;SERVICE&lt;/font&gt;" style="swimlane;fontStyle=0;childLayout=stackLayout;horizontal=1;startSize=30;horizontalStack=0;resizeParent=1;resizeParentMax=0;resizeLast=0;collapsible=1;marginBottom=0;whiteSpace=wrap;html=1;fontSize=20;" vertex="1" parent="1">
          <mxGeometry x="40" y="160" width="140" height="90" as="geometry" />
        </mxCell>
        <mxCell id="Hm1y3ViinjfG2HuNgmm4-16" value="&lt;u style=&quot;font-size: 20px;&quot;&gt;&lt;font style=&quot;font-size: 20px;&quot;&gt;id_service&lt;/font&gt;&lt;/u&gt;" style="text;strokeColor=none;fillColor=none;align=left;verticalAlign=middle;spacingLeft=4;spacingRight=4;overflow=hidden;points=[[0,0.5],[1,0.5]];portConstraint=eastwest;rotatable=0;whiteSpace=wrap;html=1;fontSize=20;" vertex="1" parent="Hm1y3ViinjfG2HuNgmm4-15">
          <mxGeometry y="30" width="140" height="30" as="geometry" />
        </mxCell>
        <mxCell id="Hm1y3ViinjfG2HuNgmm4-17" value="&lt;font style=&quot;font-size: 20px;&quot;&gt;lib_service&lt;/font&gt;" style="text;strokeColor=none;fillColor=none;align=left;verticalAlign=middle;spacingLeft=4;spacingRight=4;overflow=hidden;points=[[0,0.5],[1,0.5]];portConstraint=eastwest;rotatable=0;whiteSpace=wrap;html=1;fontSize=20;" vertex="1" parent="Hm1y3ViinjfG2HuNgmm4-15">
          <mxGeometry y="60" width="140" height="30" as="geometry" />
        </mxCell>
        <mxCell id="Hm1y3ViinjfG2HuNgmm4-84" value="" style="endArrow=none;html=1;rounded=0;entryX=0.429;entryY=1;entryDx=0;entryDy=0;entryPerimeter=0;" edge="1" parent="Hm1y3ViinjfG2HuNgmm4-15">
          <mxGeometry width="50" height="50" relative="1" as="geometry">
            <mxPoint x="68" y="130" as="sourcePoint" />
            <mxPoint x="68.06000000000017" y="90" as="targetPoint" />
          </mxGeometry>
        </mxCell>
        <mxCell id="Hm1y3ViinjfG2HuNgmm4-19" value="&lt;font style=&quot;font-size: 20px;&quot;&gt;EMPLOYE&lt;/font&gt;" style="swimlane;fontStyle=0;childLayout=stackLayout;horizontal=1;startSize=30;horizontalStack=0;resizeParent=1;resizeParentMax=0;resizeLast=0;collapsible=1;marginBottom=0;whiteSpace=wrap;html=1;fontSize=20;" vertex="1" parent="1">
          <mxGeometry x="40" y="370" width="160" height="180" as="geometry" />
        </mxCell>
        <mxCell id="Hm1y3ViinjfG2HuNgmm4-20" value="&lt;u style=&quot;font-size: 20px;&quot;&gt;id_employe&lt;/u&gt;" style="text;strokeColor=none;fillColor=none;align=left;verticalAlign=middle;spacingLeft=4;spacingRight=4;overflow=hidden;points=[[0,0.5],[1,0.5]];portConstraint=eastwest;rotatable=0;whiteSpace=wrap;html=1;fontSize=20;" vertex="1" parent="Hm1y3ViinjfG2HuNgmm4-19">
          <mxGeometry y="30" width="160" height="30" as="geometry" />
        </mxCell>
        <mxCell id="Hm1y3ViinjfG2HuNgmm4-21" value="nom_employe" style="text;strokeColor=none;fillColor=none;align=left;verticalAlign=middle;spacingLeft=4;spacingRight=4;overflow=hidden;points=[[0,0.5],[1,0.5]];portConstraint=eastwest;rotatable=0;whiteSpace=wrap;html=1;fontSize=20;" vertex="1" parent="Hm1y3ViinjfG2HuNgmm4-19">
          <mxGeometry y="60" width="160" height="30" as="geometry" />
        </mxCell>
        <mxCell id="Hm1y3ViinjfG2HuNgmm4-22" value="email_employe" style="text;strokeColor=none;fillColor=none;align=left;verticalAlign=middle;spacingLeft=4;spacingRight=4;overflow=hidden;points=[[0,0.5],[1,0.5]];portConstraint=eastwest;rotatable=0;whiteSpace=wrap;html=1;fontSize=20;" vertex="1" parent="Hm1y3ViinjfG2HuNgmm4-19">
          <mxGeometry y="90" width="160" height="30" as="geometry" />
        </mxCell>
        <mxCell id="Hm1y3ViinjfG2HuNgmm4-18" value="poste_employe" style="text;strokeColor=none;fillColor=none;align=left;verticalAlign=middle;spacingLeft=4;spacingRight=4;overflow=hidden;points=[[0,0.5],[1,0.5]];portConstraint=eastwest;rotatable=0;whiteSpace=wrap;html=1;fontSize=20;" vertex="1" parent="Hm1y3ViinjfG2HuNgmm4-19">
          <mxGeometry y="120" width="160" height="30" as="geometry" />
        </mxCell>
        <mxCell id="Hm1y3ViinjfG2HuNgmm4-87" value="accord_sortie" style="text;strokeColor=none;fillColor=none;align=left;verticalAlign=middle;spacingLeft=4;spacingRight=4;overflow=hidden;points=[[0,0.5],[1,0.5]];portConstraint=eastwest;rotatable=0;whiteSpace=wrap;html=1;fontSize=20;" vertex="1" parent="Hm1y3ViinjfG2HuNgmm4-19">
          <mxGeometry y="150" width="160" height="30" as="geometry" />
        </mxCell>
        <mxCell id="Hm1y3ViinjfG2HuNgmm4-23" value="TECHNICIEN" style="swimlane;fontStyle=0;childLayout=stackLayout;horizontal=1;startSize=30;horizontalStack=0;resizeParent=1;resizeParentMax=0;resizeLast=0;collapsible=1;marginBottom=0;whiteSpace=wrap;html=1;fontSize=20;" vertex="1" parent="1">
          <mxGeometry x="412" y="659" width="146" height="150" as="geometry" />
        </mxCell>
        <mxCell id="Hm1y3ViinjfG2HuNgmm4-24" value="&lt;u style=&quot;font-size: 20px;&quot;&gt;id_tech&lt;/u&gt;" style="text;strokeColor=none;fillColor=none;align=left;verticalAlign=middle;spacingLeft=4;spacingRight=4;overflow=hidden;points=[[0,0.5],[1,0.5]];portConstraint=eastwest;rotatable=0;whiteSpace=wrap;html=1;fontSize=20;" vertex="1" parent="Hm1y3ViinjfG2HuNgmm4-23">
          <mxGeometry y="30" width="146" height="30" as="geometry" />
        </mxCell>
        <mxCell id="Hm1y3ViinjfG2HuNgmm4-25" value="nom_tech" style="text;strokeColor=none;fillColor=none;align=left;verticalAlign=middle;spacingLeft=4;spacingRight=4;overflow=hidden;points=[[0,0.5],[1,0.5]];portConstraint=eastwest;rotatable=0;whiteSpace=wrap;html=1;fontSize=20;" vertex="1" parent="Hm1y3ViinjfG2HuNgmm4-23">
          <mxGeometry y="60" width="146" height="30" as="geometry" />
        </mxCell>
        <mxCell id="Hm1y3ViinjfG2HuNgmm4-26" value="username" style="text;strokeColor=none;fillColor=none;align=left;verticalAlign=middle;spacingLeft=4;spacingRight=4;overflow=hidden;points=[[0,0.5],[1,0.5]];portConstraint=eastwest;rotatable=0;whiteSpace=wrap;html=1;fontSize=20;" vertex="1" parent="Hm1y3ViinjfG2HuNgmm4-23">
          <mxGeometry y="90" width="146" height="30" as="geometry" />
        </mxCell>
        <mxCell id="Hm1y3ViinjfG2HuNgmm4-68" value="user_password" style="text;strokeColor=none;fillColor=none;align=left;verticalAlign=middle;spacingLeft=4;spacingRight=4;overflow=hidden;points=[[0,0.5],[1,0.5]];portConstraint=eastwest;rotatable=0;whiteSpace=wrap;html=1;fontSize=20;" vertex="1" parent="Hm1y3ViinjfG2HuNgmm4-23">
          <mxGeometry y="120" width="146" height="30" as="geometry" />
        </mxCell>
        <mxCell id="Hm1y3ViinjfG2HuNgmm4-27" value="INTERVENTION" style="swimlane;fontStyle=0;childLayout=stackLayout;horizontal=1;startSize=30;horizontalStack=0;resizeParent=1;resizeParentMax=0;resizeLast=0;collapsible=1;marginBottom=0;whiteSpace=wrap;html=1;fontSize=20;" vertex="1" parent="1">
          <mxGeometry x="739" y="641" width="160" height="150" as="geometry" />
        </mxCell>
        <mxCell id="Hm1y3ViinjfG2HuNgmm4-28" value="&lt;u style=&quot;font-size: 20px;&quot;&gt;id_intervent&lt;/u&gt;" style="text;strokeColor=none;fillColor=none;align=left;verticalAlign=middle;spacingLeft=4;spacingRight=4;overflow=hidden;points=[[0,0.5],[1,0.5]];portConstraint=eastwest;rotatable=0;whiteSpace=wrap;html=1;fontSize=20;" vertex="1" parent="Hm1y3ViinjfG2HuNgmm4-27">
          <mxGeometry y="30" width="160" height="30" as="geometry" />
        </mxCell>
        <mxCell id="Hm1y3ViinjfG2HuNgmm4-30" value="action_requise" style="text;strokeColor=none;fillColor=none;align=left;verticalAlign=middle;spacingLeft=4;spacingRight=4;overflow=hidden;points=[[0,0.5],[1,0.5]];portConstraint=eastwest;rotatable=0;whiteSpace=wrap;html=1;fontSize=20;" vertex="1" parent="Hm1y3ViinjfG2HuNgmm4-27">
          <mxGeometry y="60" width="160" height="30" as="geometry" />
        </mxCell>
        <mxCell id="Hm1y3ViinjfG2HuNgmm4-69" value="decision" style="text;strokeColor=none;fillColor=none;align=left;verticalAlign=middle;spacingLeft=4;spacingRight=4;overflow=hidden;points=[[0,0.5],[1,0.5]];portConstraint=eastwest;rotatable=0;whiteSpace=wrap;html=1;fontSize=20;" vertex="1" parent="Hm1y3ViinjfG2HuNgmm4-27">
          <mxGeometry y="90" width="160" height="30" as="geometry" />
        </mxCell>
        <mxCell id="Hm1y3ViinjfG2HuNgmm4-70" value="date_intervent" style="text;strokeColor=none;fillColor=none;align=left;verticalAlign=middle;spacingLeft=4;spacingRight=4;overflow=hidden;points=[[0,0.5],[1,0.5]];portConstraint=eastwest;rotatable=0;whiteSpace=wrap;html=1;fontSize=20;" vertex="1" parent="Hm1y3ViinjfG2HuNgmm4-27">
          <mxGeometry y="120" width="160" height="30" as="geometry" />
        </mxCell>
        <mxCell id="Hm1y3ViinjfG2HuNgmm4-31" value="PANNE" style="swimlane;fontStyle=0;childLayout=stackLayout;horizontal=1;startSize=30;horizontalStack=0;resizeParent=1;resizeParentMax=0;resizeLast=0;collapsible=1;marginBottom=0;whiteSpace=wrap;html=1;fontSize=20;" vertex="1" parent="1">
          <mxGeometry x="910" y="440" width="170" height="180" as="geometry" />
        </mxCell>
        <mxCell id="Hm1y3ViinjfG2HuNgmm4-32" value="&lt;u style=&quot;font-size: 20px;&quot;&gt;id_panne&lt;/u&gt;" style="text;strokeColor=none;fillColor=none;align=left;verticalAlign=middle;spacingLeft=4;spacingRight=4;overflow=hidden;points=[[0,0.5],[1,0.5]];portConstraint=eastwest;rotatable=0;whiteSpace=wrap;html=1;fontSize=20;" vertex="1" parent="Hm1y3ViinjfG2HuNgmm4-31">
          <mxGeometry y="30" width="170" height="30" as="geometry" />
        </mxCell>
        <mxCell id="Hm1y3ViinjfG2HuNgmm4-34" value="observation" style="text;strokeColor=none;fillColor=none;align=left;verticalAlign=middle;spacingLeft=4;spacingRight=4;overflow=hidden;points=[[0,0.5],[1,0.5]];portConstraint=eastwest;rotatable=0;whiteSpace=wrap;html=1;fontSize=20;" vertex="1" parent="Hm1y3ViinjfG2HuNgmm4-31">
          <mxGeometry y="60" width="170" height="30" as="geometry" />
        </mxCell>
        <mxCell id="Hm1y3ViinjfG2HuNgmm4-112" value="" style="endArrow=none;html=1;rounded=0;entryX=0.5;entryY=0;entryDx=0;entryDy=0;" edge="1" parent="Hm1y3ViinjfG2HuNgmm4-31" target="Hm1y3ViinjfG2HuNgmm4-109">
          <mxGeometry width="50" height="50" relative="1" as="geometry">
            <mxPoint x="88" y="181" as="sourcePoint" />
            <mxPoint x="138" y="131" as="targetPoint" />
          </mxGeometry>
        </mxCell>
        <mxCell id="Hm1y3ViinjfG2HuNgmm4-66" value="reparable" style="text;strokeColor=none;fillColor=none;align=left;verticalAlign=middle;spacingLeft=4;spacingRight=4;overflow=hidden;points=[[0,0.5],[1,0.5]];portConstraint=eastwest;rotatable=0;whiteSpace=wrap;html=1;fontSize=20;" vertex="1" parent="Hm1y3ViinjfG2HuNgmm4-31">
          <mxGeometry y="90" width="170" height="30" as="geometry" />
        </mxCell>
        <mxCell id="Hm1y3ViinjfG2HuNgmm4-67" value="date_diagnostic" style="text;strokeColor=none;fillColor=none;align=left;verticalAlign=middle;spacingLeft=4;spacingRight=4;overflow=hidden;points=[[0,0.5],[1,0.5]];portConstraint=eastwest;rotatable=0;whiteSpace=wrap;html=1;fontSize=20;" vertex="1" parent="Hm1y3ViinjfG2HuNgmm4-31">
          <mxGeometry y="120" width="170" height="30" as="geometry" />
        </mxCell>
        <mxCell id="Hm1y3ViinjfG2HuNgmm4-33" value="besoin_piece" style="text;strokeColor=none;fillColor=none;align=left;verticalAlign=middle;spacingLeft=4;spacingRight=4;overflow=hidden;points=[[0,0.5],[1,0.5]];portConstraint=eastwest;rotatable=0;whiteSpace=wrap;html=1;fontSize=20;" vertex="1" parent="Hm1y3ViinjfG2HuNgmm4-31">
          <mxGeometry y="150" width="170" height="30" as="geometry" />
        </mxCell>
        <mxCell id="Hm1y3ViinjfG2HuNgmm4-35" value="&lt;font style=&quot;font-size: 20px;&quot;&gt;TYPE_MATERIEL&lt;/font&gt;" style="swimlane;fontStyle=0;childLayout=stackLayout;horizontal=1;startSize=30;horizontalStack=0;resizeParent=1;resizeParentMax=0;resizeLast=0;collapsible=1;marginBottom=0;whiteSpace=wrap;html=1;fontSize=20;" vertex="1" parent="1">
          <mxGeometry x="220" y="160" width="170" height="120" as="geometry" />
        </mxCell>
        <mxCell id="Hm1y3ViinjfG2HuNgmm4-36" value="&lt;u style=&quot;font-size: 20px;&quot;&gt;&lt;font style=&quot;font-size: 20px;&quot;&gt;Id_typ_mat&lt;/font&gt;&lt;/u&gt;" style="text;strokeColor=none;fillColor=none;align=left;verticalAlign=middle;spacingLeft=4;spacingRight=4;overflow=hidden;points=[[0,0.5],[1,0.5]];portConstraint=eastwest;rotatable=0;whiteSpace=wrap;html=1;fontSize=20;" vertex="1" parent="Hm1y3ViinjfG2HuNgmm4-35">
          <mxGeometry y="30" width="170" height="30" as="geometry" />
        </mxCell>
        <mxCell id="Hm1y3ViinjfG2HuNgmm4-37" value="lib_mat" style="text;strokeColor=none;fillColor=none;align=left;verticalAlign=middle;spacingLeft=4;spacingRight=4;overflow=hidden;points=[[0,0.5],[1,0.5]];portConstraint=eastwest;rotatable=0;whiteSpace=wrap;html=1;fontSize=20;" vertex="1" parent="Hm1y3ViinjfG2HuNgmm4-35">
          <mxGeometry y="60" width="170" height="30" as="geometry" />
        </mxCell>
        <mxCell id="Hm1y3ViinjfG2HuNgmm4-38" value="mobilite" style="text;strokeColor=none;fillColor=none;align=left;verticalAlign=middle;spacingLeft=4;spacingRight=4;overflow=hidden;points=[[0,0.5],[1,0.5]];portConstraint=eastwest;rotatable=0;whiteSpace=wrap;html=1;fontSize=20;" vertex="1" parent="Hm1y3ViinjfG2HuNgmm4-35">
          <mxGeometry y="90" width="170" height="30" as="geometry" />
        </mxCell>
        <mxCell id="Hm1y3ViinjfG2HuNgmm4-99" value="" style="endArrow=none;html=1;rounded=0;" edge="1" parent="Hm1y3ViinjfG2HuNgmm4-35">
          <mxGeometry width="50" height="50" relative="1" as="geometry">
            <mxPoint x="141" y="168" as="sourcePoint" />
            <mxPoint x="141" y="118" as="targetPoint" />
          </mxGeometry>
        </mxCell>
        <mxCell id="Hm1y3ViinjfG2HuNgmm4-39" value="TYPE_LOGICIEL" style="swimlane;fontStyle=0;childLayout=stackLayout;horizontal=1;startSize=30;horizontalStack=0;resizeParent=1;resizeParentMax=0;resizeLast=0;collapsible=1;marginBottom=0;whiteSpace=wrap;html=1;fontSize=20;" vertex="1" parent="1">
          <mxGeometry x="480" y="160" width="160" height="90" as="geometry" />
        </mxCell>
        <mxCell id="Hm1y3ViinjfG2HuNgmm4-40" value="&lt;u style=&quot;font-size: 20px;&quot;&gt;id_typ_log&lt;/u&gt;" style="text;strokeColor=none;fillColor=none;align=left;verticalAlign=middle;spacingLeft=4;spacingRight=4;overflow=hidden;points=[[0,0.5],[1,0.5]];portConstraint=eastwest;rotatable=0;whiteSpace=wrap;html=1;fontSize=20;" vertex="1" parent="Hm1y3ViinjfG2HuNgmm4-39">
          <mxGeometry y="30" width="160" height="30" as="geometry" />
        </mxCell>
        <mxCell id="Hm1y3ViinjfG2HuNgmm4-41" value="lib_log" style="text;strokeColor=none;fillColor=none;align=left;verticalAlign=middle;spacingLeft=4;spacingRight=4;overflow=hidden;points=[[0,0.5],[1,0.5]];portConstraint=eastwest;rotatable=0;whiteSpace=wrap;html=1;fontSize=20;" vertex="1" parent="Hm1y3ViinjfG2HuNgmm4-39">
          <mxGeometry y="60" width="160" height="30" as="geometry" />
        </mxCell>
        <mxCell id="Hm1y3ViinjfG2HuNgmm4-43" value="INVENTAIRE" style="swimlane;fontStyle=0;childLayout=stackLayout;horizontal=1;startSize=30;horizontalStack=0;resizeParent=1;resizeParentMax=0;resizeLast=0;collapsible=1;marginBottom=0;whiteSpace=wrap;html=1;fontSize=20;" vertex="1" parent="1">
          <mxGeometry x="40" y="575" width="140" height="120" as="geometry" />
        </mxCell>
        <mxCell id="Hm1y3ViinjfG2HuNgmm4-44" value="&lt;u style=&quot;font-size: 20px;&quot;&gt;id_invent&lt;/u&gt;" style="text;strokeColor=none;fillColor=none;align=left;verticalAlign=middle;spacingLeft=4;spacingRight=4;overflow=hidden;points=[[0,0.5],[1,0.5]];portConstraint=eastwest;rotatable=0;whiteSpace=wrap;html=1;fontSize=20;" vertex="1" parent="Hm1y3ViinjfG2HuNgmm4-43">
          <mxGeometry y="30" width="140" height="30" as="geometry" />
        </mxCell>
        <mxCell id="Hm1y3ViinjfG2HuNgmm4-45" value="date_invent" style="text;strokeColor=none;fillColor=none;align=left;verticalAlign=middle;spacingLeft=4;spacingRight=4;overflow=hidden;points=[[0,0.5],[1,0.5]];portConstraint=eastwest;rotatable=0;whiteSpace=wrap;html=1;fontSize=20;" vertex="1" parent="Hm1y3ViinjfG2HuNgmm4-43">
          <mxGeometry y="60" width="140" height="30" as="geometry" />
        </mxCell>
        <mxCell id="Hm1y3ViinjfG2HuNgmm4-46" value="responsable" style="text;strokeColor=none;fillColor=none;align=left;verticalAlign=middle;spacingLeft=4;spacingRight=4;overflow=hidden;points=[[0,0.5],[1,0.5]];portConstraint=eastwest;rotatable=0;whiteSpace=wrap;html=1;fontSize=20;" vertex="1" parent="Hm1y3ViinjfG2HuNgmm4-43">
          <mxGeometry y="90" width="140" height="30" as="geometry" />
        </mxCell>
        <mxCell id="Hm1y3ViinjfG2HuNgmm4-47" value="MATERIEL" style="swimlane;fontStyle=0;childLayout=stackLayout;horizontal=1;startSize=30;horizontalStack=0;resizeParent=1;resizeParentMax=0;resizeLast=0;collapsible=1;marginBottom=0;whiteSpace=wrap;html=1;fontSize=20;" vertex="1" parent="1">
          <mxGeometry x="480" y="370" width="140" height="210" as="geometry" />
        </mxCell>
        <mxCell id="Hm1y3ViinjfG2HuNgmm4-48" value="&lt;u style=&quot;font-size: 20px;&quot;&gt;id_mat&lt;/u&gt;" style="text;strokeColor=none;fillColor=none;align=left;verticalAlign=middle;spacingLeft=4;spacingRight=4;overflow=hidden;points=[[0,0.5],[1,0.5]];portConstraint=eastwest;rotatable=0;whiteSpace=wrap;html=1;fontSize=20;" vertex="1" parent="Hm1y3ViinjfG2HuNgmm4-47">
          <mxGeometry y="30" width="140" height="30" as="geometry" />
        </mxCell>
        <mxCell id="Hm1y3ViinjfG2HuNgmm4-49" value="lib_mat" style="text;strokeColor=none;fillColor=none;align=left;verticalAlign=middle;spacingLeft=4;spacingRight=4;overflow=hidden;points=[[0,0.5],[1,0.5]];portConstraint=eastwest;rotatable=0;whiteSpace=wrap;html=1;fontSize=20;" vertex="1" parent="Hm1y3ViinjfG2HuNgmm4-47">
          <mxGeometry y="60" width="140" height="30" as="geometry" />
        </mxCell>
        <mxCell id="Hm1y3ViinjfG2HuNgmm4-50" value="fabricant" style="text;strokeColor=none;fillColor=none;align=left;verticalAlign=middle;spacingLeft=4;spacingRight=4;overflow=hidden;points=[[0,0.5],[1,0.5]];portConstraint=eastwest;rotatable=0;whiteSpace=wrap;html=1;fontSize=20;" vertex="1" parent="Hm1y3ViinjfG2HuNgmm4-47">
          <mxGeometry y="90" width="140" height="30" as="geometry" />
        </mxCell>
        <mxCell id="Hm1y3ViinjfG2HuNgmm4-56" value="modele" style="text;strokeColor=none;fillColor=none;align=left;verticalAlign=middle;spacingLeft=4;spacingRight=4;overflow=hidden;points=[[0,0.5],[1,0.5]];portConstraint=eastwest;rotatable=0;whiteSpace=wrap;html=1;fontSize=20;" vertex="1" parent="Hm1y3ViinjfG2HuNgmm4-47">
          <mxGeometry y="120" width="140" height="30" as="geometry" />
        </mxCell>
        <mxCell id="Hm1y3ViinjfG2HuNgmm4-57" value="num_serie" style="text;strokeColor=none;fillColor=none;align=left;verticalAlign=middle;spacingLeft=4;spacingRight=4;overflow=hidden;points=[[0,0.5],[1,0.5]];portConstraint=eastwest;rotatable=0;whiteSpace=wrap;html=1;fontSize=20;" vertex="1" parent="Hm1y3ViinjfG2HuNgmm4-47">
          <mxGeometry y="150" width="140" height="30" as="geometry" />
        </mxCell>
        <mxCell id="Hm1y3ViinjfG2HuNgmm4-58" value="etat_achat" style="text;strokeColor=none;fillColor=none;align=left;verticalAlign=middle;spacingLeft=4;spacingRight=4;overflow=hidden;points=[[0,0.5],[1,0.5]];portConstraint=eastwest;rotatable=0;whiteSpace=wrap;html=1;fontSize=20;" vertex="1" parent="Hm1y3ViinjfG2HuNgmm4-47">
          <mxGeometry y="180" width="140" height="30" as="geometry" />
        </mxCell>
        <mxCell id="Hm1y3ViinjfG2HuNgmm4-51" value="LOGICIEL" style="swimlane;fontStyle=0;childLayout=stackLayout;horizontal=1;startSize=30;horizontalStack=0;resizeParent=1;resizeParentMax=0;resizeLast=0;collapsible=1;marginBottom=0;whiteSpace=wrap;html=1;fontSize=20;" vertex="1" parent="1">
          <mxGeometry x="930" y="160" width="140" height="240" as="geometry" />
        </mxCell>
        <mxCell id="Hm1y3ViinjfG2HuNgmm4-52" value="&lt;u style=&quot;font-size: 20px;&quot;&gt;id_log&lt;/u&gt;" style="text;strokeColor=none;fillColor=none;align=left;verticalAlign=middle;spacingLeft=4;spacingRight=4;overflow=hidden;points=[[0,0.5],[1,0.5]];portConstraint=eastwest;rotatable=0;whiteSpace=wrap;html=1;fontSize=20;" vertex="1" parent="Hm1y3ViinjfG2HuNgmm4-51">
          <mxGeometry y="30" width="140" height="30" as="geometry" />
        </mxCell>
        <mxCell id="Hm1y3ViinjfG2HuNgmm4-53" value="lib_log" style="text;strokeColor=none;fillColor=none;align=left;verticalAlign=middle;spacingLeft=4;spacingRight=4;overflow=hidden;points=[[0,0.5],[1,0.5]];portConstraint=eastwest;rotatable=0;whiteSpace=wrap;html=1;fontSize=20;" vertex="1" parent="Hm1y3ViinjfG2HuNgmm4-51">
          <mxGeometry y="60" width="140" height="30" as="geometry" />
        </mxCell>
        <mxCell id="Hm1y3ViinjfG2HuNgmm4-54" value="editeur" style="text;strokeColor=none;fillColor=none;align=left;verticalAlign=middle;spacingLeft=4;spacingRight=4;overflow=hidden;points=[[0,0.5],[1,0.5]];portConstraint=eastwest;rotatable=0;whiteSpace=wrap;html=1;fontSize=20;" vertex="1" parent="Hm1y3ViinjfG2HuNgmm4-51">
          <mxGeometry y="90" width="140" height="30" as="geometry" />
        </mxCell>
        <mxCell id="Hm1y3ViinjfG2HuNgmm4-60" value="version" style="text;strokeColor=none;fillColor=none;align=left;verticalAlign=middle;spacingLeft=4;spacingRight=4;overflow=hidden;points=[[0,0.5],[1,0.5]];portConstraint=eastwest;rotatable=0;whiteSpace=wrap;html=1;fontSize=20;" vertex="1" parent="Hm1y3ViinjfG2HuNgmm4-51">
          <mxGeometry y="120" width="140" height="30" as="geometry" />
        </mxCell>
        <mxCell id="Hm1y3ViinjfG2HuNgmm4-61" value="date_achat" style="text;strokeColor=none;fillColor=none;align=left;verticalAlign=middle;spacingLeft=4;spacingRight=4;overflow=hidden;points=[[0,0.5],[1,0.5]];portConstraint=eastwest;rotatable=0;whiteSpace=wrap;html=1;fontSize=20;" vertex="1" parent="Hm1y3ViinjfG2HuNgmm4-51">
          <mxGeometry y="150" width="140" height="30" as="geometry" />
        </mxCell>
        <mxCell id="Hm1y3ViinjfG2HuNgmm4-62" value="date_expiration" style="text;strokeColor=none;fillColor=none;align=left;verticalAlign=middle;spacingLeft=4;spacingRight=4;overflow=hidden;points=[[0,0.5],[1,0.5]];portConstraint=eastwest;rotatable=0;whiteSpace=wrap;html=1;fontSize=20;" vertex="1" parent="Hm1y3ViinjfG2HuNgmm4-51">
          <mxGeometry y="180" width="140" height="30" as="geometry" />
        </mxCell>
        <mxCell id="Hm1y3ViinjfG2HuNgmm4-63" value="description" style="text;strokeColor=none;fillColor=none;align=left;verticalAlign=middle;spacingLeft=4;spacingRight=4;overflow=hidden;points=[[0,0.5],[1,0.5]];portConstraint=eastwest;rotatable=0;whiteSpace=wrap;html=1;fontSize=20;" vertex="1" parent="Hm1y3ViinjfG2HuNgmm4-51">
          <mxGeometry y="210" width="140" height="30" as="geometry" />
        </mxCell>
        <mxCell id="Hm1y3ViinjfG2HuNgmm4-71" value="" style="shape=hexagon;perimeter=hexagonPerimeter2;whiteSpace=wrap;html=1;fixedSize=1;rounded=1;shadow=0;fontSize=20;" vertex="1" parent="1">
          <mxGeometry x="60" y="290" width="100" height="40" as="geometry" />
        </mxCell>
        <mxCell id="Hm1y3ViinjfG2HuNgmm4-73" value="" style="endArrow=none;html=1;rounded=0;entryX=1;entryY=0.5;entryDx=0;entryDy=0;fontSize=20;" edge="1" parent="1">
          <mxGeometry width="50" height="50" relative="1" as="geometry">
            <mxPoint x="62" y="310" as="sourcePoint" />
            <mxPoint x="158" y="310" as="targetPoint" />
          </mxGeometry>
        </mxCell>
        <mxCell id="Hm1y3ViinjfG2HuNgmm4-74" value="lier" style="text;html=1;strokeColor=none;fillColor=none;align=center;verticalAlign=middle;whiteSpace=wrap;rounded=0;fontSize=20;" vertex="1" parent="1">
          <mxGeometry x="80" y="290" width="50" height="20" as="geometry" />
        </mxCell>
        <mxCell id="Hm1y3ViinjfG2HuNgmm4-75" value="" style="shape=hexagon;perimeter=hexagonPerimeter2;whiteSpace=wrap;html=1;fixedSize=1;rounded=1;shadow=0;fontSize=20;" vertex="1" parent="1">
          <mxGeometry x="310" y="330" width="110" height="40" as="geometry" />
        </mxCell>
        <mxCell id="Hm1y3ViinjfG2HuNgmm4-76" value="assigner" style="text;html=1;strokeColor=none;fillColor=none;align=center;verticalAlign=middle;whiteSpace=wrap;rounded=0;fontSize=20;" vertex="1" parent="1">
          <mxGeometry x="338" y="334" width="50" height="10" as="geometry" />
        </mxCell>
        <mxCell id="Hm1y3ViinjfG2HuNgmm4-77" value="" style="endArrow=none;html=1;rounded=0;entryX=1;entryY=0.5;entryDx=0;entryDy=0;fontSize=20;" edge="1" parent="1" target="Hm1y3ViinjfG2HuNgmm4-75">
          <mxGeometry width="50" height="50" relative="1" as="geometry">
            <mxPoint x="311" y="351" as="sourcePoint" />
            <mxPoint x="408" y="351" as="targetPoint" />
          </mxGeometry>
        </mxCell>
        <mxCell id="Hm1y3ViinjfG2HuNgmm4-78" value="" style="shape=hexagon;perimeter=hexagonPerimeter2;whiteSpace=wrap;html=1;fixedSize=1;rounded=1;shadow=0;fontSize=20;" vertex="1" parent="1">
          <mxGeometry x="687" y="300" width="180" height="60" as="geometry" />
        </mxCell>
        <mxCell id="Hm1y3ViinjfG2HuNgmm4-79" value="LIGNE_LOGICIEL" style="text;html=1;strokeColor=none;fillColor=none;align=center;verticalAlign=middle;whiteSpace=wrap;rounded=0;fontSize=20;" vertex="1" parent="1">
          <mxGeometry x="706" y="304" width="150" height="30" as="geometry" />
        </mxCell>
        <mxCell id="Hm1y3ViinjfG2HuNgmm4-81" value="" style="endArrow=none;html=1;rounded=0;exitX=0;exitY=0.5;exitDx=0;exitDy=0;fontSize=20;" edge="1" parent="1">
          <mxGeometry width="50" height="50" relative="1" as="geometry">
            <mxPoint x="692" y="333" as="sourcePoint" />
            <mxPoint x="930" y="333" as="targetPoint" />
          </mxGeometry>
        </mxCell>
        <mxCell id="Hm1y3ViinjfG2HuNgmm4-82" value="" style="shape=hexagon;perimeter=hexagonPerimeter2;whiteSpace=wrap;html=1;fixedSize=1;rounded=1;shadow=0;fontSize=20;" vertex="1" parent="1">
          <mxGeometry x="720" y="180" width="100" height="40" as="geometry" />
        </mxCell>
        <mxCell id="Hm1y3ViinjfG2HuNgmm4-83" value="Date_instal" style="text;html=1;strokeColor=none;fillColor=none;align=center;verticalAlign=middle;whiteSpace=wrap;rounded=0;fontSize=20;" vertex="1" parent="1">
          <mxGeometry x="700" y="330" width="120" height="30" as="geometry" />
        </mxCell>
        <mxCell id="Hm1y3ViinjfG2HuNgmm4-86" value="" style="endArrow=none;html=1;rounded=0;entryX=0.429;entryY=1;entryDx=0;entryDy=0;entryPerimeter=0;" edge="1" parent="1">
          <mxGeometry width="50" height="50" relative="1" as="geometry">
            <mxPoint x="108" y="370" as="sourcePoint" />
            <mxPoint x="108.06000000000017" y="330" as="targetPoint" />
          </mxGeometry>
        </mxCell>
        <mxCell id="Hm1y3ViinjfG2HuNgmm4-88" value="&lt;font style=&quot;font-size: 20px;&quot;&gt;(1,n)&lt;/font&gt;" style="text;html=1;strokeColor=none;fillColor=none;align=center;verticalAlign=middle;whiteSpace=wrap;rounded=0;" vertex="1" parent="1">
          <mxGeometry x="60" y="253" width="50" height="20" as="geometry" />
        </mxCell>
        <mxCell id="Hm1y3ViinjfG2HuNgmm4-89" value="&lt;font style=&quot;font-size: 20px;&quot;&gt;(1,1)&lt;/font&gt;" style="text;html=1;strokeColor=none;fillColor=none;align=center;verticalAlign=middle;whiteSpace=wrap;rounded=0;" vertex="1" parent="1">
          <mxGeometry x="50" y="340" width="60" height="30" as="geometry" />
        </mxCell>
        <mxCell id="Hm1y3ViinjfG2HuNgmm4-90" value="" style="shape=hexagon;perimeter=hexagonPerimeter2;whiteSpace=wrap;html=1;fixedSize=1;rounded=1;shadow=0;fontSize=20;" vertex="1" parent="1">
          <mxGeometry x="239" y="409" width="200" height="60" as="geometry" />
        </mxCell>
        <mxCell id="Hm1y3ViinjfG2HuNgmm4-91" value="" style="endArrow=none;html=1;rounded=0;entryX=0.143;entryY=0.333;entryDx=0;entryDy=0;entryPerimeter=0;" edge="1" parent="1">
          <mxGeometry width="50" height="50" relative="1" as="geometry">
            <mxPoint x="197" y="440" as="sourcePoint" />
            <mxPoint x="481.02" y="439.99" as="targetPoint" />
          </mxGeometry>
        </mxCell>
        <mxCell id="Hm1y3ViinjfG2HuNgmm4-92" value="&lt;font style=&quot;font-size: 20px;&quot;&gt;LIGNE_MATERIEL&lt;/font&gt;" style="text;html=1;strokeColor=none;fillColor=none;align=center;verticalAlign=middle;whiteSpace=wrap;rounded=0;" vertex="1" parent="1">
          <mxGeometry x="255" y="410" width="170" height="30" as="geometry" />
        </mxCell>
        <mxCell id="Hm1y3ViinjfG2HuNgmm4-93" value="&lt;font style=&quot;font-size: 20px;&quot;&gt;Date_attribution&lt;/font&gt;" style="text;html=1;strokeColor=none;fillColor=none;align=center;verticalAlign=middle;whiteSpace=wrap;rounded=0;" vertex="1" parent="1">
          <mxGeometry x="270" y="439" width="140" height="30" as="geometry" />
        </mxCell>
        <mxCell id="Hm1y3ViinjfG2HuNgmm4-100" value="" style="endArrow=none;html=1;rounded=0;entryX=0;entryY=0;entryDx=0;entryDy=0;" edge="1" parent="1" target="Hm1y3ViinjfG2HuNgmm4-47">
          <mxGeometry width="50" height="50" relative="1" as="geometry">
            <mxPoint x="419" y="350" as="sourcePoint" />
            <mxPoint x="469" y="300" as="targetPoint" />
          </mxGeometry>
        </mxCell>
        <mxCell id="Hm1y3ViinjfG2HuNgmm4-101" value="" style="endArrow=none;html=1;rounded=0;entryX=0;entryY=0.5;entryDx=0;entryDy=0;" edge="1" parent="1">
          <mxGeometry width="50" height="50" relative="1" as="geometry">
            <mxPoint x="620" y="370" as="sourcePoint" />
            <mxPoint x="690" y="333" as="targetPoint" />
          </mxGeometry>
        </mxCell>
        <mxCell id="Hm1y3ViinjfG2HuNgmm4-103" value="&lt;font style=&quot;font-size: 20px;&quot;&gt;relier&lt;/font&gt;" style="text;html=1;strokeColor=none;fillColor=none;align=center;verticalAlign=middle;whiteSpace=wrap;rounded=0;" vertex="1" parent="1">
          <mxGeometry x="740" y="173" width="60" height="30" as="geometry" />
        </mxCell>
        <mxCell id="Hm1y3ViinjfG2HuNgmm4-104" value="" style="endArrow=none;html=1;rounded=0;" edge="1" parent="1">
          <mxGeometry width="50" height="50" relative="1" as="geometry">
            <mxPoint x="639" y="200" as="sourcePoint" />
            <mxPoint x="929" y="200" as="targetPoint" />
          </mxGeometry>
        </mxCell>
        <mxCell id="Hm1y3ViinjfG2HuNgmm4-105" value="" style="shape=hexagon;perimeter=hexagonPerimeter2;whiteSpace=wrap;html=1;fixedSize=1;rounded=1;shadow=0;fontSize=20;" vertex="1" parent="1">
          <mxGeometry x="700" y="457" width="120" height="40" as="geometry" />
        </mxCell>
        <mxCell id="Hm1y3ViinjfG2HuNgmm4-106" value="" style="shape=hexagon;perimeter=hexagonPerimeter2;whiteSpace=wrap;html=1;fixedSize=1;rounded=1;shadow=0;fontSize=20;" vertex="1" parent="1">
          <mxGeometry x="230" y="524" width="216" height="80" as="geometry" />
        </mxCell>
        <mxCell id="Hm1y3ViinjfG2HuNgmm4-107" value="" style="endArrow=none;html=1;rounded=0;" edge="1" parent="1">
          <mxGeometry width="50" height="50" relative="1" as="geometry">
            <mxPoint x="230" y="560" as="sourcePoint" />
            <mxPoint x="480" y="560" as="targetPoint" />
          </mxGeometry>
        </mxCell>
        <mxCell id="Hm1y3ViinjfG2HuNgmm4-108" value="" style="endArrow=none;html=1;rounded=0;entryX=0;entryY=1;entryDx=0;entryDy=0;entryPerimeter=0;exitX=1;exitY=0;exitDx=0;exitDy=0;" edge="1" parent="1" source="Hm1y3ViinjfG2HuNgmm4-43">
          <mxGeometry width="50" height="50" relative="1" as="geometry">
            <mxPoint x="153" y="630" as="sourcePoint" />
            <mxPoint x="233" y="560" as="targetPoint" />
          </mxGeometry>
        </mxCell>
        <mxCell id="Hm1y3ViinjfG2HuNgmm4-109" value="" style="shape=hexagon;perimeter=hexagonPerimeter2;whiteSpace=wrap;html=1;fixedSize=1;rounded=1;shadow=0;fontSize=20;" vertex="1" parent="1">
          <mxGeometry x="942" y="699" width="110" height="40" as="geometry" />
        </mxCell>
        <mxCell id="Hm1y3ViinjfG2HuNgmm4-110" value="" style="shape=hexagon;perimeter=hexagonPerimeter2;whiteSpace=wrap;html=1;fixedSize=1;rounded=1;shadow=0;fontSize=20;" vertex="1" parent="1">
          <mxGeometry x="592" y="698" width="110" height="40" as="geometry" />
        </mxCell>
        <mxCell id="Hm1y3ViinjfG2HuNgmm4-111" value="" style="endArrow=none;html=1;rounded=0;entryX=0.27;entryY=0.033;entryDx=0;entryDy=0;entryPerimeter=0;" edge="1" parent="1">
          <mxGeometry width="50" height="50" relative="1" as="geometry">
            <mxPoint x="558" y="720" as="sourcePoint" />
            <mxPoint x="741.2" y="718.99" as="targetPoint" />
          </mxGeometry>
        </mxCell>
        <mxCell id="Hm1y3ViinjfG2HuNgmm4-113" value="" style="endArrow=none;html=1;rounded=0;exitX=0.75;exitY=1;exitDx=0;exitDy=0;" edge="1" parent="1">
          <mxGeometry width="50" height="50" relative="1" as="geometry">
            <mxPoint x="900" y="720" as="sourcePoint" />
            <mxPoint x="1050" y="720" as="targetPoint" />
          </mxGeometry>
        </mxCell>
        <mxCell id="Hm1y3ViinjfG2HuNgmm4-114" value="" style="endArrow=none;html=1;rounded=0;" edge="1" parent="1">
          <mxGeometry width="50" height="50" relative="1" as="geometry">
            <mxPoint x="621" y="480" as="sourcePoint" />
            <mxPoint x="911" y="480" as="targetPoint" />
          </mxGeometry>
        </mxCell>
        <mxCell id="Hm1y3ViinjfG2HuNgmm4-115" value="&lt;font style=&quot;font-size: 20px;&quot;&gt;LIGNE_INVENTAIRE&lt;/font&gt;" style="text;html=1;strokeColor=none;fillColor=none;align=center;verticalAlign=middle;whiteSpace=wrap;rounded=0;" vertex="1" parent="1">
          <mxGeometry x="240" y="530" width="200" height="30" as="geometry" />
        </mxCell>
        <mxCell id="Hm1y3ViinjfG2HuNgmm4-116" value="&lt;font style=&quot;font-size: 20px;&quot;&gt;observation&lt;br&gt;etat&lt;/font&gt;" style="text;html=1;strokeColor=none;fillColor=none;align=center;verticalAlign=middle;whiteSpace=wrap;rounded=0;" vertex="1" parent="1">
          <mxGeometry x="250" y="560" width="180" height="40" as="geometry" />
        </mxCell>
        <mxCell id="Hm1y3ViinjfG2HuNgmm4-118" value="&lt;font style=&quot;font-size: 20px;&quot;&gt;concerner&lt;/font&gt;" style="text;html=1;strokeColor=none;fillColor=none;align=center;verticalAlign=middle;whiteSpace=wrap;rounded=0;" vertex="1" parent="1">
          <mxGeometry x="710" y="453" width="90" height="30" as="geometry" />
        </mxCell>
        <mxCell id="Hm1y3ViinjfG2HuNgmm4-120" value="&lt;font style=&quot;font-size: 20px;&quot;&gt;réaliser&lt;/font&gt;" style="text;html=1;strokeColor=none;fillColor=none;align=center;verticalAlign=middle;whiteSpace=wrap;rounded=0;" vertex="1" parent="1">
          <mxGeometry x="611" y="694" width="60" height="30" as="geometry" />
        </mxCell>
        <mxCell id="Hm1y3ViinjfG2HuNgmm4-121" value="&lt;font style=&quot;font-size: 20px;&quot;&gt;coupler&lt;/font&gt;" style="text;html=1;strokeColor=none;fillColor=none;align=center;verticalAlign=middle;whiteSpace=wrap;rounded=0;" vertex="1" parent="1">
          <mxGeometry x="970" y="692" width="60" height="30" as="geometry" />
        </mxCell>
        <mxCell id="Hm1y3ViinjfG2HuNgmm4-122" value="&lt;font style=&quot;font-size: 20px;&quot;&gt;(0,n)&lt;/font&gt;" style="text;html=1;strokeColor=none;fillColor=none;align=center;verticalAlign=middle;whiteSpace=wrap;rounded=0;" vertex="1" parent="1">
          <mxGeometry x="200" y="410" width="50" height="20" as="geometry" />
        </mxCell>
        <mxCell id="Hm1y3ViinjfG2HuNgmm4-123" value="&lt;font style=&quot;font-size: 20px;&quot;&gt;(0,n)&lt;/font&gt;" style="text;html=1;strokeColor=none;fillColor=none;align=center;verticalAlign=middle;whiteSpace=wrap;rounded=0;" vertex="1" parent="1">
          <mxGeometry x="433" y="416" width="50" height="20" as="geometry" />
        </mxCell>
        <mxCell id="Hm1y3ViinjfG2HuNgmm4-124" value="&lt;font style=&quot;font-size: 20px;&quot;&gt;(0,n)&lt;/font&gt;" style="text;html=1;strokeColor=none;fillColor=none;align=center;verticalAlign=middle;whiteSpace=wrap;rounded=0;" vertex="1" parent="1">
          <mxGeometry x="882" y="310" width="50" height="20" as="geometry" />
        </mxCell>
        <mxCell id="Hm1y3ViinjfG2HuNgmm4-125" value="&lt;font style=&quot;font-size: 20px;&quot;&gt;(0,n)&lt;/font&gt;" style="text;html=1;strokeColor=none;fillColor=none;align=center;verticalAlign=middle;whiteSpace=wrap;rounded=0;" vertex="1" parent="1">
          <mxGeometry x="600" y="331" width="50" height="20" as="geometry" />
        </mxCell>
        <mxCell id="Hm1y3ViinjfG2HuNgmm4-127" value="&lt;font style=&quot;font-size: 20px;&quot;&gt;(0,n)&lt;/font&gt;" style="text;html=1;strokeColor=none;fillColor=none;align=center;verticalAlign=middle;whiteSpace=wrap;rounded=0;" vertex="1" parent="1">
          <mxGeometry x="620" y="450" width="50" height="20" as="geometry" />
        </mxCell>
        <mxCell id="Hm1y3ViinjfG2HuNgmm4-128" value="&lt;font style=&quot;font-size: 20px;&quot;&gt;(1,1)&lt;/font&gt;" style="text;html=1;strokeColor=none;fillColor=none;align=center;verticalAlign=middle;whiteSpace=wrap;rounded=0;" vertex="1" parent="1">
          <mxGeometry x="855" y="450" width="60" height="30" as="geometry" />
        </mxCell>
        <mxCell id="Hm1y3ViinjfG2HuNgmm4-129" value="&lt;font style=&quot;font-size: 20px;&quot;&gt;(1,n)&lt;/font&gt;" style="text;html=1;strokeColor=none;fillColor=none;align=center;verticalAlign=middle;whiteSpace=wrap;rounded=0;" vertex="1" parent="1">
          <mxGeometry x="640" y="174" width="50" height="20" as="geometry" />
        </mxCell>
        <mxCell id="Hm1y3ViinjfG2HuNgmm4-130" value="&lt;font style=&quot;font-size: 20px;&quot;&gt;(1,1)&lt;/font&gt;" style="text;html=1;strokeColor=none;fillColor=none;align=center;verticalAlign=middle;whiteSpace=wrap;rounded=0;" vertex="1" parent="1">
          <mxGeometry x="876" y="170" width="60" height="30" as="geometry" />
        </mxCell>
        <mxCell id="Hm1y3ViinjfG2HuNgmm4-131" value="&lt;font style=&quot;font-size: 20px;&quot;&gt;(1,1)&lt;/font&gt;" style="text;html=1;strokeColor=none;fillColor=none;align=center;verticalAlign=middle;whiteSpace=wrap;rounded=0;" vertex="1" parent="1">
          <mxGeometry x="459" y="338" width="60" height="30" as="geometry" />
        </mxCell>
        <mxCell id="Hm1y3ViinjfG2HuNgmm4-132" value="&lt;font style=&quot;font-size: 20px;&quot;&gt;(1,n)&lt;/font&gt;" style="text;html=1;strokeColor=none;fillColor=none;align=center;verticalAlign=middle;whiteSpace=wrap;rounded=0;" vertex="1" parent="1">
          <mxGeometry x="360" y="283" width="50" height="20" as="geometry" />
        </mxCell>
        <mxCell id="Hm1y3ViinjfG2HuNgmm4-134" value="&lt;font style=&quot;font-size: 20px;&quot;&gt;(0,n)&lt;/font&gt;" style="text;html=1;strokeColor=none;fillColor=none;align=center;verticalAlign=middle;whiteSpace=wrap;rounded=0;" vertex="1" parent="1">
          <mxGeometry x="433" y="528" width="50" height="20" as="geometry" />
        </mxCell>
        <mxCell id="Hm1y3ViinjfG2HuNgmm4-135" value="&lt;font style=&quot;font-size: 20px;&quot;&gt;(1,n)&lt;/font&gt;" style="text;html=1;strokeColor=none;fillColor=none;align=center;verticalAlign=middle;whiteSpace=wrap;rounded=0;" vertex="1" parent="1">
          <mxGeometry x="180" y="580" width="50" height="20" as="geometry" />
        </mxCell>
        <mxCell id="Hm1y3ViinjfG2HuNgmm4-137" value="&lt;font style=&quot;font-size: 20px;&quot;&gt;(0,1)&lt;/font&gt;" style="text;html=1;strokeColor=none;fillColor=none;align=center;verticalAlign=middle;whiteSpace=wrap;rounded=0;" vertex="1" parent="1">
          <mxGeometry x="940" y="620" width="60" height="30" as="geometry" />
        </mxCell>
        <mxCell id="Hm1y3ViinjfG2HuNgmm4-138" value="&lt;font style=&quot;font-size: 20px;&quot;&gt;(1,1)&lt;/font&gt;" style="text;html=1;strokeColor=none;fillColor=none;align=center;verticalAlign=middle;whiteSpace=wrap;rounded=0;" vertex="1" parent="1">
          <mxGeometry x="688" y="688" width="60" height="30" as="geometry" />
        </mxCell>
        <mxCell id="Hm1y3ViinjfG2HuNgmm4-139" value="&lt;font style=&quot;font-size: 20px;&quot;&gt;(0,n)&lt;/font&gt;" style="text;html=1;strokeColor=none;fillColor=none;align=center;verticalAlign=middle;whiteSpace=wrap;rounded=0;" vertex="1" parent="1">
          <mxGeometry x="554" y="693" width="50" height="20" as="geometry" />
        </mxCell>
        <mxCell id="Hm1y3ViinjfG2HuNgmm4-142" value="ROLE" style="swimlane;fontStyle=0;childLayout=stackLayout;horizontal=1;startSize=30;horizontalStack=0;resizeParent=1;resizeParentMax=0;resizeLast=0;collapsible=1;marginBottom=0;whiteSpace=wrap;html=1;fontSize=20;" vertex="1" parent="1">
          <mxGeometry x="41" y="721" width="140" height="90" as="geometry" />
        </mxCell>
        <mxCell id="Hm1y3ViinjfG2HuNgmm4-143" value="&lt;u style=&quot;font-size: 20px;&quot;&gt;id_role&lt;/u&gt;" style="text;strokeColor=none;fillColor=none;align=left;verticalAlign=middle;spacingLeft=4;spacingRight=4;overflow=hidden;points=[[0,0.5],[1,0.5]];portConstraint=eastwest;rotatable=0;whiteSpace=wrap;html=1;fontSize=20;" vertex="1" parent="Hm1y3ViinjfG2HuNgmm4-142">
          <mxGeometry y="30" width="140" height="30" as="geometry" />
        </mxCell>
        <mxCell id="Hm1y3ViinjfG2HuNgmm4-144" value="lib_role" style="text;strokeColor=none;fillColor=none;align=left;verticalAlign=middle;spacingLeft=4;spacingRight=4;overflow=hidden;points=[[0,0.5],[1,0.5]];portConstraint=eastwest;rotatable=0;whiteSpace=wrap;html=1;fontSize=20;" vertex="1" parent="Hm1y3ViinjfG2HuNgmm4-142">
          <mxGeometry y="60" width="140" height="30" as="geometry" />
        </mxCell>
        <mxCell id="Hm1y3ViinjfG2HuNgmm4-146" value="&lt;font style=&quot;font-size: 20px;&quot;&gt;(1,1)&lt;/font&gt;" style="text;html=1;strokeColor=none;fillColor=none;align=center;verticalAlign=middle;whiteSpace=wrap;rounded=0;" vertex="1" parent="1">
          <mxGeometry x="890" y="720" width="60" height="30" as="geometry" />
        </mxCell>
        <mxCell id="Hm1y3ViinjfG2HuNgmm4-147" value="" style="shape=hexagon;perimeter=hexagonPerimeter2;whiteSpace=wrap;html=1;fixedSize=1;rounded=1;shadow=0;fontSize=20;" vertex="1" parent="1">
          <mxGeometry x="229" y="762" width="110" height="40" as="geometry" />
        </mxCell>
        <mxCell id="Hm1y3ViinjfG2HuNgmm4-150" value="" style="endArrow=none;html=1;rounded=0;exitX=0.008;exitY=0.095;exitDx=0;exitDy=0;exitPerimeter=0;" edge="1" parent="1" source="Hm1y3ViinjfG2HuNgmm4-68">
          <mxGeometry width="50" height="50" relative="1" as="geometry">
            <mxPoint x="336.37200000000007" y="782.01" as="sourcePoint" />
            <mxPoint x="180" y="783" as="targetPoint" />
          </mxGeometry>
        </mxCell>
        <mxCell id="Hm1y3ViinjfG2HuNgmm4-151" value="&lt;font style=&quot;font-size: 20px;&quot;&gt;associer&lt;/font&gt;" style="text;html=1;strokeColor=none;fillColor=none;align=center;verticalAlign=middle;whiteSpace=wrap;rounded=0;" vertex="1" parent="1">
          <mxGeometry x="250" y="757" width="60" height="30" as="geometry" />
        </mxCell>
        <mxCell id="Hm1y3ViinjfG2HuNgmm4-152" value="&lt;font style=&quot;font-size: 20px;&quot;&gt;(1,n)&lt;/font&gt;" style="text;html=1;strokeColor=none;fillColor=none;align=center;verticalAlign=middle;whiteSpace=wrap;rounded=0;" vertex="1" parent="1">
          <mxGeometry x="179" y="788" width="50" height="20" as="geometry" />
        </mxCell>
        <mxCell id="Hm1y3ViinjfG2HuNgmm4-153" value="&lt;font style=&quot;font-size: 20px;&quot;&gt;(1,1)&lt;/font&gt;" style="text;html=1;strokeColor=none;fillColor=none;align=center;verticalAlign=middle;whiteSpace=wrap;rounded=0;" vertex="1" parent="1">
          <mxGeometry x="360" y="777" width="60" height="30" as="geometry" />
        </mxCell>
        <mxCell id="Hm1y3ViinjfG2HuNgmm4-155" value="" style="shape=hexagon;perimeter=hexagonPerimeter2;whiteSpace=wrap;html=1;fixedSize=1;rounded=1;shadow=0;fontSize=20;" vertex="1" parent="1">
          <mxGeometry x="250" y="660" width="110" height="40" as="geometry" />
        </mxCell>
        <mxCell id="Hm1y3ViinjfG2HuNgmm4-156" value="" style="endArrow=none;html=1;rounded=0;" edge="1" parent="1">
          <mxGeometry width="50" height="50" relative="1" as="geometry">
            <mxPoint x="180" y="680" as="sourcePoint" />
            <mxPoint x="410" y="680" as="targetPoint" />
          </mxGeometry>
        </mxCell>
        <mxCell id="Hm1y3ViinjfG2HuNgmm4-157" value="&lt;font style=&quot;font-size: 20px;&quot;&gt;effectuer&lt;/font&gt;" style="text;html=1;strokeColor=none;fillColor=none;align=center;verticalAlign=middle;whiteSpace=wrap;rounded=0;" vertex="1" parent="1">
          <mxGeometry x="280" y="654" width="60" height="30" as="geometry" />
        </mxCell>
        <mxCell id="Hm1y3ViinjfG2HuNgmm4-158" value="&lt;font style=&quot;font-size: 20px;&quot;&gt;(0,n)&lt;/font&gt;" style="text;html=1;strokeColor=none;fillColor=none;align=center;verticalAlign=middle;whiteSpace=wrap;rounded=0;" vertex="1" parent="1">
          <mxGeometry x="360" y="655" width="50" height="20" as="geometry" />
        </mxCell>
        <mxCell id="Hm1y3ViinjfG2HuNgmm4-159" value="&lt;font style=&quot;font-size: 20px;&quot;&gt;(1,1)&lt;/font&gt;" style="text;html=1;strokeColor=none;fillColor=none;align=center;verticalAlign=middle;whiteSpace=wrap;rounded=0;" vertex="1" parent="1">
          <mxGeometry x="184" y="647" width="42" height="30" as="geometry" />
        </mxCell>
      </root>
    </mxGraphModel>
  </diagram>
</mxfile>
